<svg width="3377" xmlns="http://www.w3.org/2000/svg" viewBox="0 0 3377 2391" xmlns:ev="http://www.w3.org/2001/xml-events" height="2391" xmlns:xlink="http://www.w3.org/1999/xlink"><defs/><g transform="translate(5.5,5.5)" id="page1"><rect y="0" width="3368" x="0" height="2381" fill="none"/><path transform="translate(1201.269635,380.583787)" fill-rule="nonzero" d="M1457.4,444.8L1457.4,.0L.0,.0L.0,444.8L1457.4,444.8z" stroke="#101843" fill="#90d6ab" id="shape1" stroke-width="1"/><g transform="translate(1416.393635,589.186087)" id="shape2"><path fill-rule="nonzero" d="M280.3,110.4L280.3,.0L.0,.0L.0,110.4L280.3,110.4z" stroke="#101843" fill="#ffffff" stroke-width="1"/><text xml:space="preserve" style="fill:#191919;font-family:微软雅黑,PingFang SC,Mircrosoft YaHei,Arial;font-size:24.00pt"><tspan y="67.8" x="32.9">Component A</tspan></text></g><g transform="translate(1779.394635,589.186087)" id="shape3"><path fill-rule="nonzero" d="M280.3,110.4L280.3,.0L.0,.0L.0,110.4L280.3,110.4z" stroke="#101843" fill="#ffffff" stroke-width="1"/><text xml:space="preserve" style="fill:#191919;font-family:微软雅黑,PingFang SC,Mircrosoft YaHei,Arial;font-size:24.00pt"><tspan y="67.8" x="34.1">Component B</tspan></text></g><g transform="translate(2142.394635,589.186087)" id="shape4"><path fill-rule="nonzero" d="M280.3,110.4L280.3,.0L.0,.0L.0,110.4L280.3,110.4z" stroke="#101843" fill="#ffffff" stroke-width="1"/><text xml:space="preserve" style="fill:#191919;font-family:微软雅黑,PingFang SC,Mircrosoft YaHei,Arial;font-size:24.00pt"><tspan y="67.8" x="33.3">Component C</tspan></text></g><g transform="translate(1201.269635,1409.358787)" id="shape5"><path fill-rule="nonzero" d="M420.3,592.5L420.3,.0L.0,.0L.0,592.5L420.3,592.5z" stroke="#101843" fill="#8dc0ff" stroke-width="1"/><text xml:space="preserve" style="fill:#191919;font-family:微软雅黑,PingFang SC,Mircrosoft YaHei,Arial;font-size:48.00pt"><tspan y="320.6" x="76.6">Device A</tspan></text></g><g transform="translate(1201.269735,1404.358787)" id="shape6"><path fill-rule="nonzero" d="M140.1,125.0L140.1,.0L.0,.0L.0,125.0L140.1,125.0z" stroke="#101843" fill="#3d6de0" stroke-width="1"/><text xml:space="preserve" style="fill:#191919;font-family:微软雅黑,PingFang SC,Mircrosoft YaHei,Arial;font-size:26.00pt"><tspan y="52.5" x="18.4">Ability </tspan><tspan y="98.1" x="58.0">A</tspan></text></g><g transform="translate(1341.369735,1404.358787)" id="shape7"><path fill-rule="nonzero" d="M140.1,125.0L140.1,.0L.0,.0L.0,125.0L140.1,125.0z" stroke="#101843" fill="#3d6de0" stroke-width="1"/><text xml:space="preserve" style="fill:#191919;font-family:微软雅黑,PingFang SC,Mircrosoft YaHei,Arial;font-size:26.00pt"><tspan y="52.5" x="18.4">Ability </tspan><tspan y="98.1" x="59.3">B</tspan></text></g><g transform="translate(1481.469735,1404.358787)" id="shape8"><path fill-rule="nonzero" d="M140.1,125.0L140.1,.0L.0,.0L.0,125.0L140.1,125.0z" stroke="#101843" fill="#3d6de0" stroke-width="1"/><text xml:space="preserve" style="fill:#191919;font-family:微软雅黑,PingFang SC,Mircrosoft YaHei,Arial;font-size:26.00pt"><tspan y="52.5" x="18.4">Ability </tspan><tspan y="98.1" x="58.4">C</tspan></text></g><g transform="translate(1201.269635,1002.088787)" id="shape9"><path fill-rule="nonzero" d="M420.3,125.0L420.3,.0L.0,.0L.0,125.0L420.3,125.0z" stroke="#101843" fill="#ffcc53" stroke-width="1"/><text xml:space="preserve" style="fill:#191919;font-family:微软雅黑,PingFang SC,Mircrosoft YaHei,Arial;font-size:26.00pt"><tspan y="75.5" x="89.8">Exploit Plugins</tspan></text></g><g transform="translate(1709.369635,1002.088787)" id="shape10"><path fill-rule="nonzero" d="M420.3,125.0L420.3,.0L.0,.0L.0,125.0L420.3,125.0z" stroke="#101843" fill="#ffcc53" stroke-width="1"/><text xml:space="preserve" style="fill:#191919;font-family:微软雅黑,PingFang SC,Mircrosoft YaHei,Arial;font-size:26.00pt"><tspan y="75.5" x="89.8">Exploit Plugins</tspan></text></g><g transform="translate(2238.369635,1002.088787)" id="shape11"><path fill-rule="nonzero" d="M420.3,125.0L420.3,.0L.0,.0L.0,125.0L420.3,125.0z" stroke="#101843" fill="#ffcc53" stroke-width="1"/><text xml:space="preserve" style="fill:#191919;font-family:微软雅黑,PingFang SC,Mircrosoft YaHei,Arial;font-size:26.00pt"><tspan y="75.5" x="89.8">Exploit Plugins</tspan></text></g><g transform="translate(1709.369635,1409.358787)" id="shape12"><path fill-rule="nonzero" d="M420.3,592.5L420.3,.0L.0,.0L.0,592.5L420.3,592.5z" stroke="#101843" fill="#8dc0ff" stroke-width="1"/><text xml:space="preserve" style="fill:#191919;font-family:微软雅黑,PingFang SC,Mircrosoft YaHei,Arial;font-size:48.00pt"><tspan y="320.6" x="79.0">Device B</tspan></text></g><g transform="translate(1709.369735,1404.358787)" id="shape13"><path fill-rule="nonzero" d="M140.1,125.0L140.1,.0L.0,.0L.0,125.0L140.1,125.0z" stroke="#101843" fill="#3d6de0" stroke-width="1"/><text xml:space="preserve" style="fill:#191919;font-family:微软雅黑,PingFang SC,Mircrosoft YaHei,Arial;font-size:26.00pt"><tspan y="52.5" x="18.4">Ability </tspan><tspan y="98.1" x="58.0">A</tspan></text></g><g transform="translate(1849.469735,1404.358787)" id="shape14"><path fill-rule="nonzero" d="M140.1,125.0L140.1,.0L.0,.0L.0,125.0L140.1,125.0z" stroke="#101843" fill="#3d6de0" stroke-width="1"/><text xml:space="preserve" style="fill:#191919;font-family:微软雅黑,PingFang SC,Mircrosoft YaHei,Arial;font-size:26.00pt"><tspan y="52.5" x="18.4">Ability </tspan><tspan y="98.1" x="59.3">B</tspan></text></g><g transform="translate(1989.569735,1404.358787)" id="shape15"><path fill-rule="nonzero" d="M140.1,125.0L140.1,.0L.0,.0L.0,125.0L140.1,125.0z" stroke="#101843" fill="#3d6de0" stroke-width="1"/><text xml:space="preserve" style="fill:#191919;font-family:微软雅黑,PingFang SC,Mircrosoft YaHei,Arial;font-size:26.00pt"><tspan y="52.5" x="18.4">Ability </tspan><tspan y="98.1" x="58.4">C</tspan></text></g><g transform="translate(2238.369635,1409.358787)" id="shape16"><path fill-rule="nonzero" d="M420.3,592.5L420.3,.0L.0,.0L.0,592.5L420.3,592.5z" stroke="#101843" fill="#8dc0ff" stroke-width="1"/><text xml:space="preserve" style="fill:#191919;font-family:微软雅黑,PingFang SC,Mircrosoft YaHei,Arial;font-size:48.00pt"><tspan y="320.6" x="77.4">Device C</tspan></text></g><g transform="translate(2238.369735,1404.358787)" id="shape17"><path fill-rule="nonzero" d="M140.1,125.0L140.1,.0L.0,.0L.0,125.0L140.1,125.0z" stroke="#101843" fill="#3d6de0" stroke-width="1"/><text xml:space="preserve" style="fill:#191919;font-family:微软雅黑,PingFang SC,Mircrosoft YaHei,Arial;font-size:26.00pt"><tspan y="52.5" x="18.4">Ability </tspan><tspan y="98.1" x="58.0">A</tspan></text></g><g transform="translate(2378.469735,1404.358787)" id="shape18"><path fill-rule="nonzero" d="M140.1,125.0L140.1,.0L.0,.0L.0,125.0L140.1,125.0z" stroke="#101843" fill="#3d6de0" stroke-width="1"/><text xml:space="preserve" style="fill:#191919;font-family:微软雅黑,PingFang SC,Mircrosoft YaHei,Arial;font-size:26.00pt"><tspan y="52.5" x="18.4">Ability </tspan><tspan y="98.1" x="59.3">B</tspan></text></g><g transform="translate(2518.569735,1404.358787)" id="shape19"><path fill-rule="nonzero" d="M140.1,125.0L140.1,.0L.0,.0L.0,125.0L140.1,125.0z" stroke="#101843" fill="#3d6de0" stroke-width="1"/><text xml:space="preserve" style="fill:#191919;font-family:微软雅黑,PingFang SC,Mircrosoft YaHei,Arial;font-size:26.00pt"><tspan y="52.5" x="18.4">Ability </tspan><tspan y="98.1" x="58.4">C</tspan></text></g><g transform="translate(1709.369635,425.588787)" id="shape20"><text xml:space="preserve" style="fill:#191919;font-family:微软雅黑,PingFang SC,Mircrosoft YaHei,Arial;font-size:48.00pt"><tspan y="69.6" x="111.4">Target</tspan></text></g><g transform="translate(2282.519635,699.591087)" id="shape21"><path stroke="#191919" d="M.0,.0C2.7,37.2,5.5,74.3,31.8,106.2C58.1,138.0,107.9,164.5,134.2,196.3C159.5,226.9,163.0,262.5,165.7,298.2" fill="none" stroke-width="1"/><path stroke-linecap="round" stroke="#191919" d="M168.6,296.3L166.0,302.5L162.6,296.7L168.6,296.3" fill="#191919" stroke-width="1"/></g><g transform="translate(1919.519635,699.591087)" id="shape22"><path stroke="#191919" d="M.0,.0L.0,296.5" fill="none" stroke-width="1"/><path stroke-linecap="round" stroke="#191919" d="M3.0,296.5L.0,302.5L-3.0,296.5L3.0,296.5" fill="#191919" stroke-width="1"/></g><g transform="translate(2282.519635,699.591087)" id="shape23"><path stroke="#191919" d="M.0,.0C-58.0,46.7,-115.9,93.3,-157.0,133.3C-198.1,173.3,-222.3,206.5,-253.8,233.6C-284.0,259.6,-320.9,279.8,-358.1,299.9" fill="none" stroke-width="1"/><path stroke-linecap="round" stroke="#191919" d="M-356.3,302.3L-363.0,302.5L-359.1,297.0L-356.3,302.3" fill="#191919" stroke-width="1"/></g><g transform="translate(1201.269635,1279.358787)" id="shape24"><path fill-rule="nonzero" d="M420.3,125.0L420.3,.0L.0,.0L.0,125.0L420.3,125.0z" stroke="#101843" fill="#ffcc53" stroke-width="1"/><text xml:space="preserve" style="fill:#191919;font-family:微软雅黑,PingFang SC,Mircrosoft YaHei,Arial;font-size:26.00pt"><tspan y="75.5" x="90.2">Device Plugins</tspan></text></g><g transform="translate(1709.369635,1279.358787)" id="shape25"><path fill-rule="nonzero" d="M420.3,125.0L420.3,.0L.0,.0L.0,125.0L420.3,125.0z" stroke="#101843" fill="#ffcc53" stroke-width="1"/><text xml:space="preserve" style="fill:#191919;font-family:微软雅黑,PingFang SC,Mircrosoft YaHei,Arial;font-size:26.00pt"><tspan y="75.5" x="90.2">Device Plugins</tspan></text></g><g transform="translate(2238.369635,1279.358787)" id="shape26"><path fill-rule="nonzero" d="M420.3,125.0L420.3,.0L.0,.0L.0,125.0L420.3,125.0z" stroke="#101843" fill="#ffcc53" stroke-width="1"/><text xml:space="preserve" style="fill:#191919;font-family:微软雅黑,PingFang SC,Mircrosoft YaHei,Arial;font-size:26.00pt"><tspan y="75.5" x="90.2">Device Plugins</tspan></text></g><g transform="translate(747.369635,1434.858787)" id="shape27"><text xml:space="preserve" style="fill:#191919;font-family:微软雅黑,PingFang SC,Mircrosoft YaHei,Arial;font-size:18.00pt"><tspan y="28.0" x="62.6">Abilities are implemented by </tspan><tspan y="59.2" x="15.8">Firmware, Gateware, or the hardware </tspan><tspan y="90.4" x="197.0">itself.</tspan></text></g><g transform="translate(1411.419635,1127.088787)" id="shape28"><path stroke="#191919" d="M.0,.0L.0,146.3" fill="none" stroke-width="1"/><path stroke-linecap="round" stroke="#191919" d="M3.0,146.3L.0,152.3L-3.0,146.3L3.0,146.3" fill="#191919" stroke-width="1"/></g><g transform="translate(1411.419635,1127.088787)" id="shape29"><path stroke="#191919" d="M.0,.0C10.7,46.7,21.5,93.3,97.2,110.3C172.9,127.2,313.6,114.4,392.9,116.5C466.6,118.4,487.3,133.1,504.2,148.6" fill="none" stroke-width="1"/><path stroke-linecap="round" stroke="#191919" d="M505.8,146.0L508.1,152.3L501.7,150.4L505.8,146.0" fill="#191919" stroke-width="1"/></g><g transform="translate(1919.519635,1127.088787)" id="shape30"><path stroke="#191919" d="M.0,.0C10.5,48.4,21.1,96.9,101.2,113.6C181.3,130.3,331.0,115.3,413.9,116.5C490.7,117.6,510.2,132.5,525.4,148.5" fill="none" stroke-width="1"/><path stroke-linecap="round" stroke="#191919" d="M527.1,145.8L529.0,152.3L522.7,150.0L527.1,145.8" fill="#191919" stroke-width="1"/></g><g transform="translate(1885.895635,1127.088787)" id="shape31"><path stroke="#191919" d="M.0,.0C-1.2,18.7,-2.5,37.4,-14.5,53.4C-26.5,69.5,-49.2,82.8,-61.2,98.8C-72.0,113.3,-74.1,129.9,-75.3,146.8" fill="none" stroke-width="1"/><path stroke-linecap="round" stroke="#191919" d="M-72.3,146.5L-75.7,152.3L-78.2,146.1L-72.3,146.5" fill="#191919" stroke-width="1"/></g><g transform="translate(2448.519635,1127.088787)" id="shape32"><path stroke="#191919" d="M.0,.0C.0,8.5,.0,16.9,.0,38.1C.0,59.2,.0,93.1,.0,114.2C.0,130.6,.0,139.4,.0,146.5" fill="none" stroke-width="1"/><path stroke-linecap="round" stroke="#191919" d="M3.0,146.3L.0,152.3L-3.0,146.3L3.0,146.3" fill="#191919" stroke-width="1"/></g><g transform="translate(2380.431035,1127.088787)" id="shape33"><path stroke="#191919" d="M.0,.0C-40.1,10.9,-80.3,21.8,-217.1,31.5C-353.9,41.2,-587.3,49.6,-718.1,69.5C-843.9,88.7,-874.5,118.5,-901.6,148.8" fill="none" stroke-width="1"/><path stroke-linecap="round" stroke="#191919" d="M-898.5,149.8L-904.7,152.3L-903.0,145.8L-898.5,149.8" fill="#191919" stroke-width="1"/></g><g transform="translate(709.369635,1272.358787)" id="shape34"><text xml:space="preserve" style="fill:#191919;font-family:微软雅黑,PingFang SC,Mircrosoft YaHei,Arial;font-size:18.00pt"><tspan y="28.0" x="52.3">Device Plugins are responsible for </tspan><tspan y="59.2" x="5.1">initializing, connecting to devices, flashing </tspan><tspan y="90.4" x="54.7">firmware, and other related tasks.</tspan></text></g><g transform="translate(747.870635,1014.088787)" id="shape35"><text xml:space="preserve" style="fill:#191919;font-family:微软雅黑,PingFang SC,Mircrosoft YaHei,Arial;font-size:18.00pt"><tspan y="28.0" x="10.4">Exploit Plugins are responsible for the </tspan><tspan y="59.2" x="34.0">specific attack logic and integrate </tspan><tspan y="90.4" x="90.0">multiple Device Plugins.</tspan></text></g><g transform="translate(710.369635,622.758787)" id="shape36"><text xml:space="preserve" style="fill:#191919;font-family:微软雅黑,PingFang SC,Mircrosoft YaHei,Arial;font-size:18.00pt"><tspan y="28.0" x="31.8">Define targets and Components, with </tspan><tspan y="59.2" x="15.8">each Component being attacked by one </tspan><tspan y="90.4" x="109.8">or more Exploit Plugins.</tspan></text></g><g transform="translate(1416.393635,697.338787)" id="shape37"><path fill-rule="nonzero" d="M95.0,60.0L95.0,.0L.0,.0L.0,60.0L95.0,60.0z" stroke="#101843" fill="#d0f0ea" stroke-width="1"/><text xml:space="preserve" style="fill:#191919;font-family:微软雅黑,PingFang SC,Mircrosoft YaHei,Arial;font-size:12.00pt"><tspan y="35.5" x="33.9">BLE</tspan></text></g><g transform="translate(1511.371635,697.338787)" id="shape38"><path fill-rule="nonzero" d="M95.0,60.0L95.0,.0L.0,.0L.0,60.0L95.0,60.0z" stroke="#101843" fill="#d0f0ea" stroke-width="1"/><text xml:space="preserve" style="fill:#191919;font-family:微软雅黑,PingFang SC,Mircrosoft YaHei,Arial;font-size:12.00pt"><tspan y="35.5" x="30.3">WIFI</tspan></text></g><g transform="translate(1601.671635,697.338787)" id="shape39"><path fill-rule="nonzero" d="M95.0,60.0L95.0,.0L.0,.0L.0,60.0L95.0,60.0z" stroke="#101843" fill="#d0f0ea" stroke-width="1"/><text xml:space="preserve" style="fill:#191919;font-family:微软雅黑,PingFang SC,Mircrosoft YaHei,Arial;font-size:12.00pt"><tspan y="35.5" x="36.7">5G</tspan></text></g><g transform="translate(1779.391635,697.338787)" id="shape40"><path fill-rule="nonzero" d="M95.0,60.0L95.0,.0L.0,.0L.0,60.0L95.0,60.0z" stroke="#101843" fill="#d0f0ea" stroke-width="1"/><text xml:space="preserve" style="fill:#191919;font-family:微软雅黑,PingFang SC,Mircrosoft YaHei,Arial;font-size:12.00pt"><tspan y="35.5" x="21.5">Sensor</tspan></text></g><g transform="translate(1874.371635,697.338787)" id="shape41"><path fill-rule="nonzero" d="M95.0,60.0L95.0,.0L.0,.0L.0,60.0L95.0,60.0z" stroke="#101843" fill="#d0f0ea" stroke-width="1"/><text xml:space="preserve" style="fill:#191919;font-family:微软雅黑,PingFang SC,Mircrosoft YaHei,Arial;font-size:12.00pt"><tspan y="35.5" x="39.5">AI</tspan></text></g><g transform="translate(1964.671635,697.338787)" id="shape42"><path fill-rule="nonzero" d="M95.0,60.0L95.0,.0L.0,.0L.0,60.0L95.0,60.0z" stroke="#101843" fill="#d0f0ea" stroke-width="1"/><text xml:space="preserve" style="fill:#191919;font-family:微软雅黑,PingFang SC,Mircrosoft YaHei,Arial;font-size:12.00pt"><tspan y="35.5" x="27.9">Linux</tspan></text></g><g transform="translate(2142.391635,697.338787)" id="shape43"><path fill-rule="nonzero" d="M95.0,60.0L95.0,.0L.0,.0L.0,60.0L95.0,60.0z" stroke="#101843" fill="#d0f0ea" stroke-width="1"/><text xml:space="preserve" style="fill:#191919;font-family:微软雅黑,PingFang SC,Mircrosoft YaHei,Arial;font-size:12.00pt"><tspan y="35.5" x="31.5">USB</tspan></text></g><g transform="translate(2327.671635,697.338787)" id="shape44"><path fill-rule="nonzero" d="M95.0,60.0L95.0,.0L.0,.0L.0,60.0L95.0,60.0z" stroke="#101843" fill="#d0f0ea" stroke-width="1"/><text xml:space="preserve" style="fill:#191919;font-family:微软雅黑,PingFang SC,Mircrosoft YaHei,Arial;font-size:12.00pt"><tspan y="35.5" x="36.7">SD</tspan></text></g><g transform="translate(2232.691635,697.338787)" id="shape45"><path fill-rule="nonzero" d="M95.0,60.0L95.0,.0L.0,.0L.0,60.0L95.0,60.0z" stroke="#101843" fill="#d0f0ea" stroke-width="1"/><text xml:space="preserve" style="fill:#191919;font-family:微软雅黑,PingFang SC,Mircrosoft YaHei,Arial;font-size:12.00pt"><tspan y="35.5" x="16.3">Android</tspan></text></g><g transform="translate(1463.881635,757.338787)" id="shape46"><path stroke="#191919" d="M.0,.0C-0.9,30.1,-1.7,60.1,-10.0,85.9C-18.3,111.7,-34.1,133.1,-42.4,158.9C-50.3,183.4,-51.5,211.8,-52.3,240.4" fill="none" stroke-width="1"/><path stroke-linecap="round" stroke="#191919" d="M-49.3,238.8L-52.5,244.8L-55.3,238.7L-49.3,238.8" fill="#191919" stroke-width="1"/></g><g transform="translate(1558.859635,757.338787)" id="shape47"><path stroke="#191919" d="M.0,.0C5.4,39.1,10.8,78.2,63.0,99.4C115.3,120.7,214.3,124.1,266.5,145.3C316.6,165.7,323.6,202.5,328.9,240.0" fill="none" stroke-width="1"/><path stroke-linecap="round" stroke="#191919" d="M331.7,238.4L329.6,244.8L325.8,239.2L331.7,238.4" fill="#191919" stroke-width="1"/></g><g transform="translate(1826.879635,757.338787)" id="shape48"><path stroke="#191919" d="M.0,.0C-4.3,31.8,-8.6,63.6,-49.9,88.5C-91.2,113.4,-169.6,131.4,-210.9,156.3C-250.1,179.9,-256.0,209.8,-260.1,239.9" fill="none" stroke-width="1"/><path stroke-linecap="round" stroke="#191919" d="M-257.0,239.2L-260.8,244.8L-263.0,238.4L-257.0,239.2" fill="#191919" stroke-width="1"/></g></g></svg>