<svg xmlns="http://www.w3.org/2000/svg" xmlns:xlink="http://www.w3.org/1999/xlink" width="2021" viewBox="0 0 2021 972" height="972"><defs/><g transform="translate(-80.07,-1003.50)"><path fill="none" transform="translate(642.420100,1121.000000)" id="shape1" d="M1457.4,444.8L1457.4,.0L.0,.0L.0,444.8L1457.4,444.8z" stroke="#101843" stroke-width="1"/><g transform="translate(642.815900,1612.709283)" id="shape2"><path fill-rule="nonzero" fill="#d7dcff" d="M420.3,362.1L420.3,.0L.0,.0L.0,362.1L420.3,362.1z" stroke="#101843" stroke-width="1"/><text style="fill:#191919;font-family:微软雅黑,PingFang SC,Mircrosoft YaHei,Arial;font-size:48.00pt" xml:space="preserve"><tspan x="76.6" y="205.2">Device A</tspan></text></g><g transform="translate(658.977000,1613.843484)" id="shape3"><path fill-rule="nonzero" fill="#44bdad" d="M388.0,85.9L388.0,.0L.0,.0L.0,85.9L388.0,85.9z" stroke="#101843" stroke-width="1"/><text style="fill:#191919;font-family:微软雅黑,PingFang SC,Mircrosoft YaHei,Arial;font-size:28.00pt" xml:space="preserve"><tspan x="110.8" y="56.5">Firmware</tspan></text></g><path fill-rule="nonzero" fill="#b2e8df" transform="translate(657.678200,1244.774340)" id="shape4" d="M1424.0,101.2L1424.0,.0L.0,.0L.0,101.2L1424.0,101.2z" stroke="#101843" stroke-width="1"/><g transform="translate(1150.915900,1612.709283)" id="shape5"><path fill-rule="nonzero" fill="#d7dcff" d="M420.3,362.1L420.3,.0L.0,.0L.0,362.1L420.3,362.1z" stroke="#101843" stroke-width="1"/><text style="fill:#191919;font-family:微软雅黑,PingFang SC,Mircrosoft YaHei,Arial;font-size:48.00pt" xml:space="preserve"><tspan x="79.0" y="205.2">Device B</tspan></text></g><g transform="translate(1679.915900,1612.709283)" id="shape6"><path fill-rule="nonzero" fill="#d7dcff" d="M420.3,362.1L420.3,.0L.0,.0L.0,362.1L420.3,362.1z" stroke="#101843" stroke-width="1"/><text style="fill:#191919;font-family:微软雅黑,PingFang SC,Mircrosoft YaHei,Arial;font-size:48.00pt" xml:space="preserve"><tspan x="77.4" y="205.2">Device C</tspan></text></g><g transform="translate(1150.520000,1003.500000)" id="shape7"><text style="fill:#191919;font-family:微软雅黑,PingFang SC,Mircrosoft YaHei,Arial;font-size:48.00pt" xml:space="preserve"><tspan x="73.8" y="69.6">IoTSploit</tspan></text></g><g transform="translate(80.070000,1436.047900)" id="shape8"><text style="fill:#191919;font-family:微软雅黑,PingFang SC,Mircrosoft YaHei,Arial;font-size:24.00pt;font-weight:bold" xml:space="preserve"><tspan x="3.7" y="36.8">Device Driver </tspan><tspan style="font-weight:normal" x="229.3">are responsible for </tspan><tspan style="font-weight:normal" x="3.7" y="78.4">initializing, connecting to devices </tspan></text></g><g transform="translate(88.019100,1226.544507)" id="shape9"><text style="fill:#191919;font-family:微软雅黑,PingFang SC,Mircrosoft YaHei,Arial;font-size:24.00pt;font-weight:bold" xml:space="preserve"><tspan x="3.4" y="39.8">Exploit Plugins</tspan><tspan style="font-weight:normal" x="244.2"> are responsible for </tspan><tspan style="font-weight:normal" x="3.4" y="81.4">the specific attack logic and </tspan><tspan style="font-weight:normal" x="3.4" y="123.0">integrate multiple Devices.</tspan></text></g><g transform="translate(1167.076900,1613.843484)" id="shape10"><path fill-rule="nonzero" fill="#44bdad" d="M388.0,85.9L388.0,.0L.0,.0L.0,85.9L388.0,85.9z" stroke="#101843" stroke-width="1"/><text style="fill:#191919;font-family:微软雅黑,PingFang SC,Mircrosoft YaHei,Arial;font-size:28.00pt" xml:space="preserve"><tspan x="110.8" y="56.5">Firmware</tspan></text></g><g transform="translate(1696.077000,1613.843484)" id="shape11"><path fill-rule="nonzero" fill="#44bdad" d="M388.0,85.9L388.0,.0L.0,.0L.0,85.9L388.0,85.9z" stroke="#101843" stroke-width="1"/><text style="fill:#191919;font-family:微软雅黑,PingFang SC,Mircrosoft YaHei,Arial;font-size:28.00pt" xml:space="preserve"><tspan x="110.8" y="56.5">Firmware</tspan></text></g><path fill-rule="nonzero" fill="#d7dcff" transform="translate(657.678200,1361.000000)" id="shape12" d="M1424.0,177.4L1424.0,.0L.0,.0L.0,177.4L1424.0,177.4z" stroke="#101843" stroke-width="1"/><g transform="translate(738.928657,1407.500000)" id="shape13"><path fill-rule="nonzero" fill="#88b0f5" d="M290.3,49.5L290.3,.0L.0,.0L.0,49.5L290.3,49.5z" stroke="#101843" stroke-width="1"/><text style="fill:#191919;font-family:微软雅黑,PingFang SC,Mircrosoft YaHei,Arial;font-size:16.00pt" xml:space="preserve"><tspan x="91.5" y="32.6">Exploit LIB</tspan></text></g><g transform="translate(1057.015452,1407.500000)" id="shape14"><path fill-rule="nonzero" fill="#88b0f5" d="M290.3,49.5L290.3,.0L.0,.0L.0,49.5L290.3,49.5z" stroke="#101843" stroke-width="1"/><text style="fill:#191919;font-family:微软雅黑,PingFang SC,Mircrosoft YaHei,Arial;font-size:16.00pt" xml:space="preserve"><tspan x="81.5" y="32.4">Bus/USB LIB</tspan></text></g><g transform="translate(1373.102247,1407.500000)" id="shape15"><path fill-rule="nonzero" fill="#88b0f5" d="M290.3,49.5L290.3,.0L.0,.0L.0,49.5L290.3,49.5z" stroke="#101843" stroke-width="1"/><text style="fill:#191919;font-family:微软雅黑,PingFang SC,Mircrosoft YaHei,Arial;font-size:16.00pt" xml:space="preserve"><tspan x="48.3" y="32.4">Firmware_Flash LIB</tspan></text></g><g transform="translate(1300.670000,1361.000000)" id="shape16"><text style="fill:#191919;font-family:微软雅黑,PingFang SC,Mircrosoft YaHei,Arial;font-size:15.00pt;font-weight:bold" xml:space="preserve"><tspan x="32.8" y="28.0">CORE</tspan></text></g><path fill-rule="nonzero" fill="#d7dcff" transform="translate(657.678200,1142.000000)" id="shape17" d="M1424.0,93.2L1424.0,.0L.0,.0L.0,93.2L1424.0,93.2z" stroke="#101843" stroke-width="1"/><g transform="translate(1261.128000,1142.000000)" id="shape18"><text style="fill:#191919;font-family:微软雅黑,PingFang SC,Mircrosoft YaHei,Arial;font-size:15.00pt;font-weight:bold" xml:space="preserve"><tspan x="81.1" y="28.0">GUI</tspan></text></g><g transform="translate(740.899205,1180.221200)" id="shape19"><path fill-rule="nonzero" fill="#88b0f5" d="M285.4,45.3L285.4,.0L.0,.0L.0,45.3L285.4,45.3z" stroke="#101843" stroke-width="1"/><text style="fill:#191919;font-family:微软雅黑,PingFang SC,Mircrosoft YaHei,Arial;font-size:16.00pt" xml:space="preserve"><tspan x="101.1" y="30.2">Console</tspan></text></g><g transform="translate(1057.312481,1180.221200)" id="shape20"><path fill-rule="nonzero" fill="#88b0f5" d="M285.4,45.3L285.4,.0L.0,.0L.0,45.3L285.4,45.3z" stroke="#101843" stroke-width="1"/><text style="fill:#191919;font-family:微软雅黑,PingFang SC,Mircrosoft YaHei,Arial;font-size:16.00pt" xml:space="preserve"><tspan x="121.5" y="30.2">APP</tspan></text></g><g transform="translate(1373.739802,1180.221200)" id="shape21"><path fill-rule="nonzero" fill="#88b0f5" d="M285.4,45.3L285.4,.0L.0,.0L.0,45.3L285.4,45.3z" stroke="#101843" stroke-width="1"/><text style="fill:#191919;font-family:微软雅黑,PingFang SC,Mircrosoft YaHei,Arial;font-size:16.00pt" xml:space="preserve"><tspan x="119.1" y="30.2">Web</tspan></text></g><g transform="translate(1690.167123,1180.221200)" id="shape22"><path fill-rule="nonzero" fill="#88b0f5" d="M285.4,45.3L285.4,.0L.0,.0L.0,45.3L285.4,45.3z" stroke="#101843" stroke-width="1"/><text style="fill:#191919;font-family:微软雅黑,PingFang SC,Mircrosoft YaHei,Arial;font-size:16.00pt" xml:space="preserve"><tspan x="99.5" y="30.2">Desktop</tspan></text></g><g transform="translate(1692.175381,1408.000000)" id="shape23"><path fill-rule="nonzero" fill="#88b0f5" d="M290.3,48.5L290.3,.0L.0,.0L.0,48.5L290.3,48.5z" stroke="#101843" stroke-width="1"/><text style="fill:#191919;font-family:微软雅黑,PingFang SC,Mircrosoft YaHei,Arial;font-size:16.00pt" xml:space="preserve"><tspan x="102.3" y="31.9">Com LIB</tspan></text></g><g transform="translate(739.520000,1477.500000)" id="shape24"><path fill-rule="nonzero" fill="#44bdad" d="M1243.0,49.5L1243.0,.0L.0,.0L.0,49.5L1243.0,49.5z" stroke="#101843" stroke-width="1"/><text style="fill:#191919;font-family:微软雅黑,PingFang SC,Mircrosoft YaHei,Arial;font-size:26.00pt" xml:space="preserve"><tspan x="512.3" y="37.8">Device Driver</tspan></text></g><g transform="translate(1254.245000,1249.500000)" id="shape25"><text style="fill:#191919;font-family:微软雅黑,PingFang SC,Mircrosoft YaHei,Arial;font-size:15.00pt;font-weight:bold" xml:space="preserve"><tspan x="32.8" y="24.0">Exploit Plugins</tspan></text></g><g transform="translate(735.925658,1284.500000)" id="shape26"><path fill-rule="nonzero" fill="#44bdad" d="M290.3,49.5L290.3,.0L.0,.0L.0,49.5L290.3,49.5z" stroke="#101843" stroke-width="1"/><text style="fill:#191919;font-family:微软雅黑,PingFang SC,Mircrosoft YaHei,Arial;font-size:16.00pt" xml:space="preserve"><tspan x="80.3" y="32.6">CAN Plugins</tspan></text></g><g transform="translate(1054.008658,1284.500000)" id="shape27"><path fill-rule="nonzero" fill="#44bdad" d="M290.3,49.5L290.3,.0L.0,.0L.0,49.5L290.3,49.5z" stroke="#101843" stroke-width="1"/><text style="fill:#191919;font-family:微软雅黑,PingFang SC,Mircrosoft YaHei,Arial;font-size:16.00pt" xml:space="preserve"><tspan x="82.7" y="32.6">USB Plugins</tspan></text></g><g transform="translate(1370.098658,1284.500000)" id="shape28"><path fill-rule="nonzero" fill="#44bdad" d="M290.3,49.5L290.3,.0L.0,.0L.0,49.5L290.3,49.5z" stroke="#101843" stroke-width="1"/><text style="fill:#191919;font-family:微软雅黑,PingFang SC,Mircrosoft YaHei,Arial;font-size:16.00pt" xml:space="preserve"><tspan x="81.9" y="32.6">WiFi Plugins</tspan></text></g><g transform="translate(1689.168658,1285.000000)" id="shape29"><path fill-rule="nonzero" fill="#44bdad" d="M290.3,48.5L290.3,.0L.0,.0L.0,48.5L290.3,48.5z" stroke="#101843" stroke-width="1"/><text style="fill:#191919;font-family:微软雅黑,PingFang SC,Mircrosoft YaHei,Arial;font-size:16.00pt" xml:space="preserve"><tspan x="74.3" y="32.1">Other Plugins</tspan></text></g></g></svg>